0
SECTION
2
HEADER
9
$INSUNITS
70
4
9
$ACADVER
1
AC1014
9
$HANDSEED
5
FFFF
0
ENDSEC
0
SECTION
2
TABLES
0
TABLE
2
VPORT
5
8
100
AcDbSymbolTable
0
ENDTAB
0
TABLE
2
LTYPE
5
5
100
AcDbSymbolTable
0
LTYPE
5
14
100
AcDbSymbolTableRecord
100
AcDbLinetypeTableRecord
2
BYBLOCK
70
0
0
LTYPE
5
15
100
AcDbSymbolTableRecord
100
AcDbLinetypeTableRecord
2
BYLAYER
70
0
0
LTYPE
5
16
100
AcDbSymbolTableRecord
100
AcDbLinetypeTableRecord
2
DASHED
70
0
3
Dashed __ __ __ __ __ __ __ __ __ __ __ __ __ _
72
65
73
2
40
0.75
49
0.5
74
0
49
-0.25
74
0
0
ENDTAB
0
TABLE
2
LAYER
5
2
100
AcDbSymbolTable
70
2
0
LAYER
5
50
100
AcDbSymbolTableRecord
100
AcDbLayerTableRecord
2
0
70
0
62
7
6
CONTINUOUS
0
ENDTAB
0
TABLE
2
STYLE
5
3
100
AcDbSymbolTable
70
1
0
STYLE
5
11
100
AcDbSymbolTableRecord
100
AcDbTextStyleTableRecord
2
STANDARD
70
0
0
ENDTAB
0
TABLE
2
VIEW
5
6
100
AcDbSymbolTable
70
0
0
ENDTAB
0
TABLE
2
UCS
5
7
100
AcDbSymbolTable
70
0
0
ENDTAB
0
TABLE
2
APPID
5
9
100
AcDbSymbolTable
70
2
0
APPID
5
12
100
AcDbSymbolTableRecord
100
AcDbRegAppTableRecord
2
ACAD
70
0
0
ENDTAB
0
TABLE
2
DIMSTYLE
5
A
100
AcDbSymbolTable
70
1
0
ENDTAB
0
TABLE
2
BLOCK_RECORD
5
1
100
AcDbSymbolTable
70
1
0
BLOCK_RECORD
5
1F
100
AcDbSymbolTableRecord
100
AcDbBlockTableRecord
2
*MODEL_SPACE
0
BLOCK_RECORD
5
1B
100
AcDbSymbolTableRecord
100
AcDbBlockTableRecord
2
*PAPER_SPACE
0
ENDTAB
0
ENDSEC
0
SECTION
2
BLOCKS
0
BLOCK
5
20
100
AcDbEntity
100
AcDbBlockBegin
2
*MODEL_SPACE
0
ENDBLK
5
21
100
AcDbEntity
100
AcDbBlockEnd
0
BLOCK
5
1C
100
AcDbEntity
100
AcDbBlockBegin
2
*PAPER_SPACE
0
ENDBLK
5
1D
100
AcDbEntity
100
AcDbBlockEnd
0
ENDSEC
0
SECTION
2
ENTITIES
0
CIRCLE
5
100
100
AcDbEntity
8
0
100
AcDbCircle
10
-750.24477826873078
20
131.64531998392076
30
0
40
45.000000000000007
210
0
220
-0
230
1
0
LWPOLYLINE
5
101
100
AcDbEntity
8
0
100
AcDbPolyline
90
8
70
1
43
0.0
10
-700.60931556889955
20
54.887842874180812
10
-700.60931556889943
20
24.887842874180805
42
-0.41421356237310336
10
-703.10931556889943
20
22.387842874180777
10
-723.10931556889943
20
22.387842874180709
42
-0.41421356237309814
10
-725.60931556889943
20
24.887842874180738
10
-725.60931556889955
20
54.887842874180784
42
-0.41421356237310025
10
-723.10931556889955
20
57.387842874180812
10
-703.10931556889955
20
57.387842874180706
42
-0.41421356237311585
0
LWPOLYLINE
5
102
100
AcDbEntity
8
0
100
AcDbPolyline
90
44
70
1
43
0.0
10
-798.24993896484386
20
186.50000000000009
10
-811.99993896484386
20
186.50000000000009
10
-811.99993896484386
20
175.25000000000009
10
-809.49993896484386
20
175.25000000000009
10
-809.49993896484386
20
142.75000000000009
10
-811.99993896484386
20
142.75000000000009
10
-811.99993896484386
20
110.25000000000006
10
-809.49993896484386
20
110.25000000000003
10
-809.49993896484386
20
77.750000000000014
10
-811.99993896484386
20
77.750000000000028
10
-811.99993896484386
20
45.250000000000014
10
-809.49993896484386
20
45.249999999999986
10
-809.49993896484386
20
12.749999999999977
10
-811.99993896484386
20
12.749999999999986
10
-811.99993896484386
20
1.4999999999999836
10
-798.24993896484386
20
1.4999999999999889
10
-798.24993896484375
20
3.9999999999999862
10
-765.74993896484375
20
3.9999999999999929
10
-765.74993896484375
20
1.5000000000000209
10
-733.24993896484375
20
1.5000000000000284
10
-733.24993896484375
20
4.0000000000000222
10
-700.74993896484375
20
4.0000000000000284
10
-700.74993896484375
20
1.5000000000000209
10
-686.99993896484375
20
1.5000000000000244
10
-686.99993896484375
20
12.750000000000023
10
-689.49993896484375
20
12.750000000000021
10
-689.49993896484375
20
45.250000000000028
10
-686.99993896484375
20
45.250000000000021
10
-686.99993896484375
20
77.750000000000028
10
-689.49993896484375
20
77.750000000000057
10
-689.49993896484375
20
110.25000000000006
10
-686.99993896484375
20
110.25000000000006
10
-686.99993896484375
20
142.75000000000009
10
-689.49993896484386
20
142.75000000000009
10
-689.49993896484386
20
175.25000000000009
10
-686.99993896484386
20
175.25000000000009
10
-686.99993896484386
20
186.50000000000009
10
-700.74993896484386
20
186.50000000000009
10
-700.74993896484386
20
184.00000000000009
10
-733.24993896484386
20
184.00000000000009
10
-733.24993896484386
20
186.50000000000009
10
-765.74993896484386
20
186.50000000000009
10
-765.74993896484386
20
184.00000000000009
10
-798.24993896484386
20
184.00000000000009
0
LWPOLYLINE
5
103
100
AcDbEntity
8
0
100
AcDbPolyline
90
44
70
1
43
0.0
10
-996
20
112.74999999999999
10
-998.5
20
112.74999999999999
10
-998.5
20
80.249999999999986
10
-996
20
80.249999999999986
10
-996
20
47.749999999999979
10
-998.5
20
47.749999999999979
10
-998.5
20
15.249999999999968
10
-996
20
15.249999999999968
10
-996
20
3.9999999999999614
10
-987.25
20
3.9999999999999658
10
-987.25
20
1.4999999999999654
10
-954.75
20
1.499999999999996
10
-954.75
20
3.9999999999999969
10
-922.25
20
3.9999999999999969
10
-922.25
20
1.4999999999999964
10
-889.75
20
1.5000000000000049
10
-889.75
20
4.0000000000000053
10
-857.25
20
4.0000000000000018
10
-857.25
20
1.5000000000000009
10
-824.75
20
1.5000000000000004
10
-824.75
20
4.0000000000000018
10
-816
20
4.0000000000000018
10
-816
20
15.250000000000004
10
-813.5
20
15.250000000000004
10
-813.5
20
47.750000000000014
10
-816
20
47.750000000000014
10
-816
20
80.250000000000028
10
-813.5
20
80.250000000000028
10
-813.5
20
112.75000000000003
10
-816
20
112.75000000000003
10
-816.00000000000011
20
123.99999999999994
10
-824.75
20
123.99999999999997
10
-824.75
20
126.49999999999997
10
-857.25
20
126.49999999999997
10
-857.25
20
123.99999999999997
10
-889.75
20
123.99999999999997
10
-889.75
20
126.49999999999997
10
-922.25
20
126.49999999999997
10
-922.25
20
123.99999999999997
10
-954.75
20
123.99999999999997
10
-954.75
20
126.49999999999997
10
-987.25
20
126.49999999999997
10
-987.25
20
123.99999999999997
10
-996
20
123.99999999999997
0
LWPOLYLINE
5
104
100
AcDbEntity
8
0
100
AcDbPolyline
90
44
70
1
43
0.0
10
-816.00000000000011
20
141.74996948242168
10
-813.50000000000011
20
141.74996948242168
10
-813.50000000000011
20
174.24996948242168
10
-816.00000000000011
20
174.24996948242168
10
-816.00000000000011
20
206.74996948242168
10
-813.50000000000011
20
206.74996948242168
10
-813.50000000000011
20
239.24996948242168
10
-816
20
239.24996948242168
10
-816
20
250.4999694824217
10
-824.75
20
250.49996948242165
10
-824.75
20
252.99996948242165
10
-857.25
20
252.99996948242165
10
-857.25
20
250.49996948242168
10
-889.75
20
250.49996948242168
10
-889.75
20
252.99996948242168
10
-922.25
20
252.99996948242168
10
-922.25
20
250.49996948242168
10
-954.75
20
250.49996948242165
10
-954.75
20
252.99996948242168
10
-987.25
20
252.9999694824217
10
-987.25
20
250.4999694824217
10
-996
20
250.4999694824217
10
-996
20
239.2499694824217
10
-998.5
20
239.2499694824217
10
-998.5
20
206.7499694824217
10
-996
20
206.74996948242168
10
-996
20
174.24996948242168
10
-998.5
20
174.24996948242168
10
-998.5
20
141.7499694824217
10
-996.00000000000011
20
141.74996948242168
10
-996.00000000000011
20
130.49996948242168
10
-987.25000000000011
20
130.4999694824217
10
-987.25000000000011
20
127.9999694824217
10
-954.75
20
127.99996948242169
10
-954.75
20
130.4999694824217
10
-922.25
20
130.49996948242168
10
-922.25
20
127.99996948242169
10
-889.75
20
127.99996948242168
10
-889.75
20
130.49996948242168
10
-857.25
20
130.4999694824217
10
-857.25
20
127.99996948242169
10
-824.75000000000011
20
127.99996948242168
10
-824.75000000000011
20
130.49996948242168
10
-816.00000000000011
20
130.49996948242168
0
LWPOLYLINE
5
105
100
AcDbEntity
8
0
100
AcDbPolyline
90
44
70
1
43
0.0
10
-813.50000000000011
20
365.75
10
-813.50000000000011
20
379.5
10
-824.75000000000011
20
379.5
10
-824.75000000000011
20
377
10
-857.25000000000011
20
377
10
-857.25000000000011
20
379.5
10
-889.75000000000011
20
379.5
10
-889.75000000000011
20
377
10
-922.25000000000011
20
377
10
-922.25000000000011
20
379.5
10
-954.75000000000011
20
379.5
10
-954.75000000000011
20
377
10
-987.25000000000011
20
377
10
-987.25000000000011
20
379.5
10
-998.50000000000011
20
379.5
10
-998.50000000000011
20
365.75
10
-996.00000000000011
20
365.75
10
-996.00000000000011
20
333.25
10
-998.50000000000011
20
333.25
10
-998.50000000000011
20
300.75
10
-996.00000000000011
20
300.75
10
-996.00000000000011
20
268.25
10
-998.50000000000011
20
268.25
10
-998.50000000000011
20
254.50000000000003
10
-987.25000000000011
20
254.50000000000003
10
-987.25000000000011
20
257
10
-954.75000000000011
20
257
10
-954.75000000000011
20
254.50000000000003
10
-922.25000000000011
20
254.50000000000003
10
-922.25000000000011
20
257
10
-889.75000000000011
20
257
10
-889.75000000000011
20
254.50000000000003
10
-857.25000000000011
20
254.50000000000003
10
-857.25000000000011
20
257
10
-824.75000000000011
20
257
10
-824.75000000000011
20
254.50000000000003
10
-813.50000000000011
20
254.50000000000003
10
-813.50000000000011
20
268.25
10
-816.00000000000011
20
268.25
10
-816.00000000000011
20
300.75
10
-813.50000000000011
20
300.75
10
-813.50000000000011
20
333.25
10
-816.00000000000011
20
333.25
10
-816.00000000000011
20
365.75
0
LWPOLYLINE
5
106
100
AcDbEntity
8
0
100
AcDbPolyline
90
36
70
1
43
0.0
10
-809.49999999999989
20
313
10
-809.49999999999989
20
299.25
10
-811.99999999999989
20
299.25
10
-811.99999999999989
20
266.75
10
-809.49999999999989
20
266.75
10
-809.49999999999989
20
234.25
10
-811.99999999999989
20
234.25
10
-811.99999999999989
20
201.75
10
-809.49999999999989
20
201.75
10
-809.49999999999989
20
188
10
-798.24999999999989
20
188
10
-798.24999999999989
20
190.5
10
-765.74999999999989
20
190.5
10
-765.74999999999989
20
188
10
-733.24999999999989
20
188
10
-733.24999999999989
20
190.5
10
-700.74999999999989
20
190.5
10
-700.74999999999989
20
188
10
-689.49999999999989
20
188
10
-689.49999999999989
20
201.75
10
-686.99999999999989
20
201.75
10
-686.99999999999989
20
234.25
10
-689.49999999999989
20
234.25
10
-689.49999999999989
20
266.75
10
-686.99999999999989
20
266.75
10
-686.99999999999989
20
299.25
10
-689.49999999999989
20
299.25
10
-689.49999999999989
20
313
10
-700.74999999999989
20
313
10
-700.74999999999989
20
310.5
10
-733.24999999999989
20
310.5
10
-733.24999999999989
20
313
10
-765.74999999999989
20
313
10
-765.74999999999989
20
310.5
10
-798.24999999999989
20
310.5
10
-798.24999999999989
20
313
0
LWPOLYLINE
5
107
100
AcDbEntity
8
0
100
AcDbPolyline
90
36
70
1
43
0.0
10
-798.25
20
437.00000000000011
10
-812
20
437
10
-812
20
425.75
10
-809.5
20
425.75000000000011
10
-809.5
20
393.25000000000011
10
-812
20
393.25000000000011
10
-812
20
360.75000000000011
10
-809.5
20
360.75000000000011
10
-809.5
20
328.25000000000011
10
-812
20
328.25000000000011
10
-812
20
317
10
-798.25
20
317
10
-798.25
20
314.5
10
-765.75
20
314.50000000000011
10
-765.75
20
317.00000000000011
10
-733.25
20
317.00000000000011
10
-733.25
20
314.50000000000011
10
-700.75
20
314.50000000000011
10
-700.75
20
317.00000000000006
10
-687
20
317.00000000000006
10
-687
20
328.25
10
-689.5
20
328.25000000000011
10
-689.5
20
360.75000000000011
10
-687
20
360.75000000000011
10
-687
20
393.25000000000011
10
-689.5
20
393.25000000000011
10
-689.5
20
425.75000000000011
10
-687.00000000000023
20
425.75
10
-687.00000000000023
20
437
10
-700.74999999999989
20
437
10
-700.75
20
439.50000000000011
10
-733.25
20
439.50000000000011
10
-733.25
20
437.00000000000011
10
-765.75
20
437.00000000000011
10
-765.75
20
439.50000000000011
10
-798.25
20
439.50000000000011
0
CIRCLE
5
108
100
AcDbEntity
8
0
100
AcDbCircle
10
-789.75000000000011
20
339.61356408454878
30
0
40
2.3050000000000015
210
-0
220
0
230
1
0
CIRCLE
5
109
100
AcDbEntity
8
0
100
AcDbCircle
10
-789.75000000000011
20
414.61356408454878
30
0
40
2.3050000000000015
210
-0
220
0
230
1
0
CIRCLE
5
110
100
AcDbEntity
8
0
100
AcDbCircle
10
-769.75000000000011
20
339.61356408454878
30
0
40
2.3050000000000015
210
-0
220
0
230
1
0
LWPOLYLINE
5
111
100
AcDbEntity
8
0
100
AcDbPolyline
90
4
70
1
43
0.0
10
-729.75000000000011
20
354.75000000000011
10
-729.75000000000011
20
400.25000000000006
10
-703.25000000000023
20
400.25000000000006
10
-703.25
20
354.75000000000011
0
CIRCLE
5
112
100
AcDbEntity
8
0
100
AcDbCircle
10
-769.75000000000011
20
358.36356408454878
30
0
40
2.3050000000000015
210
-0
220
0
230
1
0
CIRCLE
5
113
100
AcDbEntity
8
0
100
AcDbCircle
10
-789.75000000000011
20
395.86356408454878
30
0
40
2.3050000000000015
210
-0
220
0
230
1
0
CIRCLE
5
114
100
AcDbEntity
8
0
100
AcDbCircle
10
-789.75000000000011
20
358.36356408454878
30
0
40
2.3050000000000015
210
-0
220
0
230
1
0
CIRCLE
5
115
100
AcDbEntity
8
0
100
AcDbCircle
10
-769.75000000000011
20
395.86356408454878
30
0
40
2.3050000000000015
210
-0
220
0
230
1
0
CIRCLE
5
116
100
AcDbEntity
8
0
100
AcDbCircle
10
-769.75000000000011
20
377.11356408454878
30
0
40
2.3050000000000015
210
-0
220
0
230
1
0
LWPOLYLINE
5
117
100
AcDbEntity
8
0
100
AcDbPolyline
90
4
70
1
43
0.0
10
-732.73001033014066
20
411.53117110642563
10
-754.33001033014068
20
411.53117110642563
10
-754.33001033014068
20
425.03117110642563
10
-732.73001033014066
20
425.03117110642563
0
CIRCLE
5
118
100
AcDbEntity
8
0
100
AcDbCircle
10
-769.75000000000011
20
414.61356408454878
30
0
40
2.3050000000000015
210
-0
220
0
230
1
0
CIRCLE
5
119
100
AcDbEntity
8
0
100
AcDbCircle
10
-789.75000000000011
20
377.11356408454878
30
0
40
2.3050000000000015
210
-0
220
0
230
1
0
ENDSEC
0
SECTION
2
OBJECTS
0
DICTIONARY
5
C
100
AcDbDictionary
3
ACAD_GROUP
350
D
3
ACAD_MLINESTYLE
350
17
0
DICTIONARY
5
D
100
AcDbDictionary
0
DICTIONARY
5
1A
330
C
100
AcDbDictionary
0
DICTIONARY
5
17
100
AcDbDictionary
0
ENDSEC
0
EOF
